<?xml version="1.0" encoding="UTF-8"?>
<svg version="1.1" xmlns="http://www.w3.org/2000/svg" width="42" height="38">
<path d="M0 0 C5.30608653 1.2694936 9.22978267 5.20996567 13.3125 8.625 C14.05306641 9.23601563 14.79363281 9.84703125 15.55664062 10.4765625 C17.37580451 11.97883977 19.18998451 13.486724 21 15 C20.67 15.99 20.34 16.98 20 18 C18.68 18 17.36 18 16 18 C16 22.95 16 27.9 16 33 C6.43 33 -3.14 33 -13 33 C-13 28.05 -13 23.1 -13 18 C-14.98 18 -16.96 18 -19 18 C-18.6875 16.125 -18.6875 16.125 -18 14 C-17.01 13.34 -16.02 12.68 -15 12 C-14.45897058 10.06830219 -14.45897058 10.06830219 -14.375 7.9375 C-14 4 -14 4 -13 3 C-11.5619081 3.00583404 -10.12387338 3.0544743 -8.6875 3.125 C-4.61669397 3.20217168 -3.1976837 2.51246576 0 0 Z M0 3 C-0.928125 3.9590625 -0.928125 3.9590625 -1.875 4.9375 C-4.03520783 7.03417231 -5.08776721 7.58396674 -8 8 C-8 7.01 -8 6.02 -8 5 C-8.99 5 -9.98 5 -11 5 C-11.144375 6.27875 -11.28875 7.5575 -11.4375 8.875 C-11.70642746 11.25692894 -11.92226346 12.84452691 -13 15 C-12.34 15 -11.68 15 -11 15 C-11 20.28 -11 25.56 -11 31 C-3.08 31 4.84 31 13 31 C13.165 28.586875 13.33 26.17375 13.5 23.6875 C13.55220703 22.93170654 13.60441406 22.17591309 13.65820312 21.3972168 C13.84762046 18.59090883 14 15.81355653 14 13 C13.34 12.67 12.68 12.34 12 12 C10.68 13.32 9.36 14.64 8 16 C8.66 18.31 9.32 20.62 10 23 C8.02 23 6.04 23 4 23 C4 24.98 4 26.96 4 29 C2.02 28.67 0.04 28.34 -2 28 C-2.33 26.35 -2.66 24.7 -3 23 C-4.65 23 -6.3 23 -8 23 C-7.67 20.69 -7.34 18.38 -7 16 C-5.68 16 -4.36 16 -3 16 C-3 14.35 -3 12.7 -3 11 C-0.69 11 1.62 11 4 11 C4.33 12.32 4.66 13.64 5 15 C6.65 13.35 8.3 11.7 10 10 C8.71372289 8.82739389 7.42080217 7.6620717 6.125 6.5 C5.40570312 5.8503125 4.68640625 5.200625 3.9453125 4.53125 C2.15068902 2.79382728 2.15068902 2.79382728 0 3 Z " fill="#4D7F86" transform="translate(20,1)"/>
<path d="M0 0 C2.91517292 1.07401108 4.77810176 1.77810176 7 4 C9.06449167 3.13326375 9.06449167 3.13326375 10.3125 1.4375 C12 0 12 0 14.6875 -0.1875 C15.8321875 -0.0946875 15.8321875 -0.0946875 17 0 C17 1.98 17 3.96 17 6 C15.02 6 13.04 6 11 6 C11 7.98 11 9.96 11 12 C9.00045254 12.04254356 6.99958364 12.04080783 5 12 C4 11 4 11 3.9375 8.4375 C3.958125 7.633125 3.97875 6.82875 4 6 C2.68 6 1.36 6 0 6 C0 4.02 0 2.04 0 0 Z " fill="#EE6569" transform="translate(13,18)"/>
<path d="M0 0 C0.66 0.99 1.32 1.98 2 3 C0.40900848 4.75009068 -0.84271524 5.92627277 -3 6.9375 C-5.4182206 8.22217969 -6.49662686 9.7449403 -8 12 C-11.3114019 11.42906864 -12.75054423 10.45395174 -15 8 C-15.66 7.67 -16.32 7.34 -17 7 C-17 8.98 -17 10.96 -17 13 C-17.33 13 -17.66 13 -18 13 C-18.125 9.625 -18.125 9.625 -18 6 C-17.34 5.34 -16.68 4.68 -16 4 C-15.34 4.33 -14.68 4.66 -14 5 C-13.67 3.68 -13.34 2.36 -13 1 C-10.69 1 -8.38 1 -6 1 C-5.67 1.99 -5.34 2.98 -5 4 C-3.35 2.68 -1.7 1.36 0 0 Z " fill="#98878C" transform="translate(30,11)"/>
<path d="M0 0 C1.98 0 3.96 0 6 0 C6 4.95 6 9.9 6 15 C13.92 15 21.84 15 30 15 C30 10.05 30 5.1 30 0 C30.99 0.33 31.98 0.66 33 1 C32.67 6.28 32.34 11.56 32 17 C23.09 17 14.18 17 5 17 C5 11.72 5 6.44 5 1 C3.35 1 1.7 1 0 1 C0 0.67 0 0.34 0 0 Z " fill="#3E757C" transform="translate(3,17)"/>
<path d="M0 0 C5.27356808 1.12122709 9.2838562 5.25519607 13.3125 8.625 C14.42334961 9.54152344 14.42334961 9.54152344 15.55664062 10.4765625 C17.37580451 11.97883977 19.18998451 13.486724 21 15 C20.67 15.99 20.34 16.98 20 18 C18.68 18 17.36 18 16 18 C16 22.95 16 27.9 16 33 C15.67 33 15.34 33 15 33 C15.02320312 31.89140625 15.04640625 30.7828125 15.0703125 29.640625 C15.08907577 28.17709008 15.10727537 26.71354786 15.125 25.25 C15.14175781 24.52039063 15.15851562 23.79078125 15.17578125 23.0390625 C15.24714584 17.69565666 15.24714584 17.69565666 13 13 C12.34 12.67 11.68 12.34 11 12 C11 11.34 11 10.68 11 10 C10.46375 9.773125 9.9275 9.54625 9.375 9.3125 C7 8 7 8 4 5.4375 C1.40884763 3.3321887 0.214917 2.37095196 -3 2 C-2.01 1.34 -1.02 0.68 0 0 Z " fill="#6F989D" transform="translate(20,1)"/>
<path d="M0 0 C0.33 0 0.66 0 1 0 C1.16852247 1.60397277 1.33474886 3.2081869 1.5 4.8125 C1.5928125 5.70582031 1.685625 6.59914063 1.78125 7.51953125 C2.40651747 14.60961775 2 21.87846161 2 29 C1.67 29 1.34 29 1 29 C1 24.05 1 19.1 1 14 C-0.98 14 -2.96 14 -5 14 C-4.6875 12.125 -4.6875 12.125 -4 10 C-3.01 9.34 -2.02 8.68 -1 8 C-0.42251197 6.03638136 -0.42251197 6.03638136 -0.3125 3.875 C-0.209375 2.59625 -0.10625 1.3175 0 0 Z " fill="#5C8A91" transform="translate(6,5)"/>
<path d="M0 0 C1.2065625 0.0309375 1.2065625 0.0309375 2.4375 0.0625 C2.4375 2.0425 2.4375 4.0225 2.4375 6.0625 C0.4575 6.0625 -1.5225 6.0625 -3.5625 6.0625 C-3.605221 4.39638095 -3.60313832 2.72867115 -3.5625 1.0625 C-2.5625 0.0625 -2.5625 0.0625 0 0 Z " fill="#EE3D41" transform="translate(27.5625,17.9375)"/>
<path d="M0 0 C2.475 0.99 2.475 0.99 5 2 C5 3.32 5 4.64 5 6 C3.35 6 1.7 6 0 6 C0 4.02 0 2.04 0 0 Z " fill="#E82025" transform="translate(13,18)"/>
<path d="M0 0 C1.98 0 3.96 0 6 0 C6 1.32 6 2.64 6 4 C4.02 4 2.04 4 0 4 C0 2.68 0 1.36 0 0 Z " fill="#EC1F24" transform="translate(18,13)"/>
<path d="M0 0 C0.66 0.99 1.32 1.98 2 3 C-0.05233685 5.2477975 -1.00667261 6.0022242 -4 7 C-4.66 6.34 -5.32 5.68 -6 5 C-4.02 3.35 -2.04 1.7 0 0 Z " fill="#97A7AB" transform="translate(30,11)"/>
<path d="M0 0 C0.33 0 0.66 0 1 0 C1.06058594 0.69867188 1.12117187 1.39734375 1.18359375 2.1171875 C1.26738281 3.02726563 1.35117188 3.93734375 1.4375 4.875 C1.55931641 6.23238281 1.55931641 6.23238281 1.68359375 7.6171875 C1.86989285 10.01110861 1.86989285 10.01110861 3 12 C1.68 11.67 0.36 11.34 -1 11 C-1 7.25838897 -0.48661829 3.71046443 0 0 Z " fill="#9DB8BC" transform="translate(6,5)"/>
</svg>
